# xmcd CD database file generated by OrangeCD 5.2
#
# Track frame offsets:
#	150
#	17502
#	39182
#
# Disc length: 794 seconds
#
# Revision: 0
# Processed by: cddbd v1.5.1PL2 Copyright (c) Steve Scherf et al.
# Submitted via: OrangeCD 5.2
#
DISCID=13031803
DTITLE=Cheap Trick - Can't Stop Fallin' Into Love
DYEAR=1900
DGENRE=Folk
TTITLE0=Can't Stop Fallin' Into Love (Radio Mix)
TTITLE1=The Flame
TTITLE2=You Drive, I'll Steer
EXTD=
EXTT0=
EXTT1=
EXTT2=
PLAYORDER=
